<svg version="1.1" id="Шар_1" x="0" y="0" viewBox="0 0 1000 184.09058" xml:space="preserve" xmlns="http://www.w3.org/2000/svg">
  <style type="text/css" id="style2">
  </style>
  <path id="rect65" fill="#000000" fill-opacity="0.8" stroke-width="1.08289" d="M0 0h88.931992v88.931992H0z"/>
  <path id="rect165" transform="rotate(-90)" fill="#000000" fill-opacity="0.8" stroke-width="1.08289" d="M-88.931992 95.158585H0v88.931992h-88.931992z"/>
  <path id="rect413" fill="#000000" fill-opacity="0.8" stroke-width="1.08289" d="M0 95.158585h88.931992v88.931992H0z"/>
  <path id="rect415" transform="rotate(-90)" fill="#000000" fill-opacity="0.8" stroke-width="1.08289" d="M-184.09058 95.158585h88.931992v88.931992h-88.931992z"/>
  <path d="M391.09743 36.866871L360.50478 147.31725h-20.94l-21.25139-77.253649q-1.32335-4.929444-1.63472-10.78316h-.31138q-.38922 5.468602-1.86824 10.629115l-21.32924 77.407694h-21.40707L240.54735 36.866871h20.31725l20.23941 80.873699q1.2455 5.0835 1.55687 10.62912h.38922q.31138-3.92815 2.17964-10.62912l22.88611-80.873699h19.07174l21.17354 81.489889q1.08982 4.15921 1.63473 9.85889h.31137q.23352-3.85113 1.79041-10.16698l19.8502-81.181799z" id="path19153" font-weight="600" font-size="146.443" fill="#000000" fill-opacity="0.8" stroke-width="1.08864"/>
  <path d="M417.9801 147.31725h-18.05979V68.446127h18.05979z" id="path19201" font-weight="600" font-size="146.443" fill="#000000" fill-opacity="0.8" stroke-width="1.08864"/>
  <path d="M409.10181 55.295217q-4.52628 0-7.78204-2.90712-3.17633-2.907117-3.17633-7.385648 0-4.478533 3.17633-7.464219 3.25576-2.985688 7.78204-2.985688 4.6851 0 7.94087 2.985688 3.25574 2.985687 3.25574 7.464219 0 4.242819-3.25574 7.307078-3.25577 2.98569-7.94087 2.98569z" id="path19155" font-weight="600" font-size="146.443" fill="#000000" fill-opacity="0.8" stroke-width="1.11051"/>
  <path d="M507.32531 147.31725H489.4463v-44.44203c0-13.157698-5.21471-21.77048-15.64413-21.77048-5.4459 0-9.94134 1.820456-13.48632 5.928325-3.54496 4.056523-5.31745 9.495923-5.31745 15.302995v44.98119h-17.95608V68.446127h17.95608v10.779937c3.32826-5.764715 13.15378-12.628478 24.93658-12.628478 11.54702 0 17.28496 3.727207 21.32648 8.730461 4.52114 5.545626 6.06385 12.86379 6.06385 23.773066z" id="path19157" font-weight="600" font-size="146.443" fill="#000000" fill-opacity="0.8" stroke-width="1.08318"/>
  <path id="path20723" d="M580.03128 30.551338v45.248551h-1.36208c-2.71478-4.805838-10.84676-9.202414-22.07225-9.202414-10.7058 0-19.28758 3.92854-25.7418 11.784843-6.40298 7.856302-9.60426 18.306203-9.60426 31.348692 0 12.16957 2.99532 21.55964 8.78363 28.64572 6.13259 7.38776 15.02202 9.90883 23.18052 9.90883 14.21398 0 22.10616-6.40643 26.2748-11.40414h.54144v10.43546h17.82531V30.551338zm-19.04981 50.605688c11.06915-.614083 20.18834 10.198109 19.29103 20.915974-.0839 7.93785.8895 16.5066-3.97198 23.40408-3.88654 6.99251-12.31124 9.99906-19.9509 8.75187-9.68199-.95709-15.55996-10.5624-16.45691-19.51521-.95581-9.64853-.17084-20.693027 6.77437-28.133871 3.68056-3.876006 9.08508-5.482586 14.31439-5.422843z" font-weight="600" font-size="146.443" display="inline" fill="#000000" fill-opacity="0.8" stroke-width="1.08156"/>
  <path id="path22175" d="M653.53849 66.178703c-12.74373 0-22.88861 3.744751-30.43289 11.237055-7.49331 7.492304-11.23918 17.905463-11.23918 31.236602 0 12.24603 3.59276 22.08915 10.78022 29.52979 7.23843 7.38896 16.89883 11.08265 28.97988 11.08265 12.43787 0 22.32688-3.79792 29.66726-11.39356 7.39137-7.64733 11.0869-17.80099 11.0869-30.46039 0-12.917767-3.41659-23.018264-10.24723-30.303884-6.83064-7.28562-16.361-10.928263-28.59496-10.928263zm-1.00837 15.149957c7.11489-.285683 14.39325 3.271826 17.73015 9.716363 4.31639 8.1322 4.40678 17.930367 2.61627 26.773927-1.54937 7.47438-7.1316 14.45449-14.91776 15.8312-8.18083 1.81311-17.71552-.57481-22.64333-7.73211-5.61562-7.94666-5.83822-18.50202-3.81276-27.694712 1.83091-8.310509 8.616-15.723437 17.33252-16.643023 1.22342-.173127 2.45959-.252792 3.69491-.251645z" font-weight="600" font-size="146.443" display="inline" fill="#000000" fill-opacity="0.8" stroke-width="1.08232"/>
  <path d="M814.19676 68.344606l-23.50885 78.972644h-18.91608l-15.0199-53.522477c-.57086-2.05658-.56921-2.036959-1.08982-4.775183h-.31137c-.57638 1.855771-.57086 1.844557-1.4012 4.620939l-15.1835 53.676721h-18.52686l-23.43101-78.972644h18.68254l13.93791 56.915834c.46706 1.69668.44004 1.7085.93413 4.62088h.54489c.59562-2.3286.57087-2.30723 1.24552-4.77514l16.65474-56.761574h16.96996l14.86476 57.147194c.46706 1.79951.47444 1.79476 1.01196 4.62126h.54491c.49295-2.01233.49302-1.99913 1.16767-4.62126l13.6261-57.147194z" id="path19163" font-weight="600" font-size="146.443" display="inline" fill="#000000" fill-opacity="0.8" stroke-width="1.08934"/>
  <path d="M819.37891 144.85252v-17.64273c6.16234 4.3417 13.06529 7.21844 20.56528 7.21844 9.35865 0 13.48267-2.81376 13.48267-8.06112 0-1.79719.0744-1.88191-.57012-3.4732-.75218-1.34353-1.18484-2.22217-2.66573-3.37725-1.43312-.97561-3.15287-1.99516-5.15924-2.8611-1.95859-.77023-4.15605-1.94225-6.59236-2.91787-3.00954-1.28372-5.73247-2.64445-8.16878-4.08221-2.38853-1.43775-4.3949-3.59666-6.01911-5.39386-1.57643-1.84854-2.77069-3.92815-3.58279-6.238823-.81211-2.310678-1.21816-5.006468-1.21816-8.087371 0-3.799781.83599-7.137426 2.50796-10.012936 1.67198-2.926857 3.9172-5.365905 6.73567-7.317144 2.81847-2.002587 5.91142-3.826691 9.49422-4.80231 3.58281-1.026967 7.39271-1.64813 11.21437-1.64813 6.78343 0 12.85031 1.54667 18.20063 3.75465l.00034 16.718468c-4.07049-3.835674-13.88789-6.197404-17.60353-6.18434-1.8434.0065-2.20145-.06563-3.94512.133289-1.67197.462136-3.16492.828813-4.35918 1.650386-1.19427.821574-2.1258 1.822867-2.79458 3.003881-.66879 1.129664-1.00318 2.387699-1.00318 3.774106 0 1.694496.33439 3.13225 1.00318 4.313264.66878 1.181012 1.64808 2.233654 2.93789 3.157925 1.33758.872923 2.91402 1.694497 4.72929 2.464722 1.86306.718878 2.09381 1.057729 4.48234 1.930653 3.15288 1.3864 5.97135 2.79849 8.45542 4.23624 2.53184 1.43775 4.68152 3.0809 6.44903 4.92945 1.76752 1.79719 3.39221 4.28533 4.34762 6.69871.95542 2.36202 1.1699 5.49725 1.1699 8.78355 0 4.00517-.85987 7.49686-2.57961 10.47506-1.71976 2.97821-4.01275 5.44293-6.87898 7.39418-2.86624 1.95124-6.1863 3.38898-9.96018 4.31326-3.72611.97561-7.6672 1.46342-11.82325 1.46342-8.02547 0-14.97611-1.43776-20.85191-4.31326z" id="path19165" font-weight="600" font-size="146.443" display="inline" fill="#000000" fill-opacity="0.8" stroke-width="1.04447"/>
  <path d="M944.10666 34.402148V147.31725h-18.05979V56.27656q-4.90416 3.466015-10.58677 5.930738-5.60475 2.387699-12.84424 4.236242V51.19307q4.51495-1.463429 8.71852-3.080903t8.25145-3.620061q4.12573-2.002587 8.25146-4.467309 4.20356-2.464723 8.64066-5.622649z" id="path19167" font-weight="600" font-size="146.443" fill="#000000" fill-opacity="0.8" stroke-width="1.08864"/>
  <path d="M1000 34.402148V147.31725h-18.05978V56.27656q-4.90416 3.466015-10.58677 5.930738-5.60476 2.387699-12.84425 4.236242V51.19307q4.51496-1.463429 8.71852-3.080903 4.20357-1.617474 8.25145-3.620061 4.12574-2.002587 8.25146-4.467309 4.20357-2.464723 8.64067-5.622649z" id="path19169" font-weight="600" font-size="146.443" fill="#000000" fill-opacity="0.8" stroke-width="1.08864"/>
</svg>
