<?xml version="1.0" encoding="UTF-8" standalone="no"?>
<svg
   viewBox="0 0 1000 184.09058"
   fill="#000000"
   fill-opacity="0.8"
   version="1.1"
   id="svg75"
   sodipodi:docname="win10light.svg"
   inkscape:version="1.1 (c68e22c387, 2021-05-23)"
   xmlns:inkscape="http://www.inkscape.org/namespaces/inkscape"
   xmlns:sodipodi="http://sodipodi.sourceforge.net/DTD/sodipodi-0.dtd"
   xmlns="http://www.w3.org/2000/svg"
   xmlns:svg="http://www.w3.org/2000/svg">
  <defs
     id="defs79" />
  <sodipodi:namedview
     id="namedview77"
     pagecolor="#505050"
     bordercolor="#eeeeee"
     borderopacity="1"
     inkscape:pageshadow="0"
     inkscape:pageopacity="0"
     inkscape:pagecheckerboard="0"
     showgrid="false"
     inkscape:zoom="0.70430672"
     inkscape:cx="405.36316"
     inkscape:cy="127.78523"
     inkscape:window-width="1920"
     inkscape:window-height="1010"
     inkscape:window-x="-6"
     inkscape:window-y="-6"
     inkscape:window-maximized="1"
     inkscape:current-layer="svg75" />
  <path
     d="M 0,26.398402 75.138912,16.050229 v 72.85959 H 0 M 84.189257,14.571918 183.74305,0 V 88.276257 H 84.189257 M 0,96.597034 H 75.138912 V 169.66781 L 0,159.10845 M 84.189257,97.568495 H 183.74305 V 185 L 84.189257,170.85046 M 239.93938,35.901827 l 14.22799,0.08448 22.09968,80.462323 c 1.57855,5.6176 2.73615,11.36188 3.45176,17.19065 7.70331,-32.94522 18.22697,-65.045666 27.15103,-97.568498 l 12.31268,0.04223 19.02677,69.691778 c 2.37835,9.25 5.47231,18.3733 6.41944,27.87671 6.94561,-32.94521 16.90099,-65.045657 24.83583,-97.568488 l 14.01751,-0.06335 -31.15003,111.929228 H 337.17798 L 314.65735,67.516554 c -1.26284,-4.329338 -1.78902,-8.806507 -2.18892,-13.304795 -0.58933,3.864726 -1.13656,7.77169 -2.10473,11.551941 l -22.7311,81.94064 c -5.05136,0.27454 -10.10271,0.29566 -15.15407,0.25342 L 240.06567,36.028539 m 151.41438,0.718037 a 8.4189257,8.4474887 0 1 1 0,2.111872 m 1.89426,28.721462 h 12.62838 v 80.25114 h -12.62838 m 46.64084,-67.326482 c 7.21923,-12.88242 24.05708,-18.8379 37.6326,-12.88242 10.79727,4.223743 14.81731,16.768265 15.15407,27.454338 0.58932,17.570774 0.10524,35.162674 0.25257,52.733444 -4.20947,0 -8.41893,0 -12.62839,-0.0211 -0.21048,-16.89499 0.42094,-33.78996 -0.29466,-50.684937 -0.33676,-8.363013 -3.87271,-18.415525 -12.9441,-20.548516 -13.25981,-4.012557 -26.45648,7.961758 -26.87742,21.118722 -0.37886,16.683791 -0.0211,33.430941 -0.14733,50.135841 H 427.5341 V 67.57991 h 12.62839 l -0.16838,12.924658 M 568.27749,29.566211 h 12.62839 V 147.83105 h -12.5863 l -0.3578,-12.88242 c -9.11349,16.43037 -33.46523,20.06279 -47.35646,7.87729 -9.95538,-8.59532 -12.98619,-22.59704 -12.46001,-35.26827 0.10524,-12.840182 4.3147,-26.398402 14.52265,-34.845891 13.25981,-10.939497 36.62232,-10.305936 45.88314,5.765411 l -0.0842,-48.995434 m -27.15103,46.672376 c -10.10271,1.605022 -16.94309,10.855022 -18.83735,20.421804 -2.48358,11.530824 -2.04159,24.920094 5.19869,34.634704 7.8296,10.43265 25.0463,10.66496 33.46523,0.80251 5.68277,-5.95548 7.32446,-14.48745 7.36656,-22.38584 0.0631,-8.4475 0.77875,-17.950918 -4.79879,-24.920096 -4.92507,-7.032535 -14.1017,-10.200343 -22.31015,-8.447489 M 629.3147,65.700344 c 11.26031,-0.99258 23.78346,0.781393 32.20239,8.954338 9.55548,8.869863 12.41792,22.597033 11.87069,35.057078 -0.14734,11.29852 -4.3147,22.80822 -12.56525,30.62214 -17.2167,15.71234 -49.25072,12.24887 -60.19532,-9.33447 -8.5873,-18.09875 -6.86142,-43.08219 8.83987,-56.80936 5.61963,-4.772831 12.73363,-6.969178 19.78448,-8.531964 m -2.27311,11.488585 c -18.52164,5.702055 -21.67874,29.988589 -15.89072,46.038809 4.6304,14.19179 22.52062,20.48517 35.56996,13.85388 8.73463,-4.01255 12.71257,-13.93835 13.55447,-23.0194 0.94713,-10.55936 0.10523,-22.597033 -7.36656,-30.833335 -6.3142,-7.138127 -17.00623,-8.658676 -25.8882,-6.061073 m 52.87085,-9.545662 h 13.17562 l 15.57502,57.44292 c 1.05236,3.59018 1.47331,7.30708 1.85216,11.02398 5.95639,-23.01941 13.47028,-45.616443 20.24752,-68.424662 l 11.51288,0.06335 c 5.78801,22.808219 12.98619,45.194072 17.78498,68.424662 4.94612,-22.80822 11.99697,-45.405256 17.46927,-68.002288 4.20946,-0.211187 8.46102,-0.274543 12.71258,-0.316781 l -23.78347,80.251149 h -13.09143 c -5.68277,-21.75228 -13.04933,-43.08219 -17.67974,-65.045669 -5.4723,21.963479 -13.11248,43.293389 -19.36353,65.045669 H 703.61172 L 679.82825,67.791097 m 141.01701,-2.323059 c 7.89274,-0.549087 15.93282,0.211187 23.36252,3.125571 2.06264,3.928082 0.46304,9.08105 0.94713,13.515981 -8.83987,-5.554223 -21.04732,-9.08105 -30.72908,-3.442351 -6.58781,3.590182 -6.90352,14.2129 -0.48409,18.162101 9.19768,5.9766 20.87894,7.53939 29.04529,15.20548 9.00826,8.70092 6.81933,25.34247 -3.72537,31.88927 -12.83886,8.19407 -29.67671,7.39156 -43.14699,1.14041 l -0.10524,-14.19178 c 9.55548,7.30708 22.94157,11.36187 34.51759,6.16666 6.672,-3.37899 7.00876,-13.64269 1.13656,-17.9509 -9.19768,-6.80024 -21.88921,-7.87729 -29.88719,-16.36701 -8.06112,-8.151833 -6.60885,-23.230601 2.37835,-29.988591 4.63041,-4.287101 10.9446,-5.575343 16.83785,-7.243722 m 88.25139,-31.276828 4.41994,-0.633561 V 147.83105 h -12.46001 l 0.14733,-95.245432 c -7.93484,5.490867 -16.5011,10.221461 -25.8882,12.840183 l 0.14733,-12.671234 C 887.81781,48.594179 898.97289,41.878425 909.0756,34.04338 m 50.68193,-0.04224 c 10.94461,-1.837328 23.15205,2.175229 29.67672,11.509703 9.26082,13.093608 10.10271,29.988586 10.56575,45.405252 -0.31571,16.345885 -2.10473,34.001135 -12.5021,47.305925 -9.57653,12.60788 -29.25577,15.5645 -42.09463,6.29338 -10.41842,-7.53938 -14.52265,-20.69635 -16.35377,-32.9452 -2.10473,-18.098739 -1.89426,-37.168945 4.3568,-54.275109 3.95689,-11.720892 13.72285,-21.752284 26.30914,-23.230595 m -1.93635,11.340754 c -11.21822,4.561644 -14.43846,17.866439 -15.99596,28.721461 -1.64169,15.078768 -2.02054,30.622139 1.5575,45.405249 1.78902,7.30707 5.55649,15.05764 12.77572,18.26769 8.20845,4.13927 19.15306,0.5702 23.36252,-7.53939 6.88247,-11.93207 7.05085,-26.1872 7.15609,-39.703183 -0.27362,-13.093607 -0.7998,-27.031963 -7.99798,-38.436073 -4.27261,-6.926941 -13.47029,-9.714613 -20.92103,-6.715754"
     id="path73"
     style="stroke-width:2.1083" />
</svg>
